<?xml version="1.0" standalone="no"?>
<!DOCTYPE svg PUBLIC "-//W3C//DTD SVG 1.1//EN" "http://www.w3.org/Graphics/SVG/1.1/DTD/svg11.dtd">
<svg version="1.1" width="1200" height="2134" onload="init(evt)" viewBox="0 0 1200 2134" xmlns="http://www.w3.org/2000/svg" xmlns:xlink="http://www.w3.org/1999/xlink">
<!-- Flame graph stack visualization. See https://github.com/brendangregg/FlameGraph for latest version, and http://www.brendangregg.com/flamegraphs.html for examples. -->
<!-- NOTES:  -->
<defs>
	<linearGradient id="background" y1="0" y2="1" x1="0" x2="0" >
		<stop stop-color="#eeeeee" offset="5%" />
		<stop stop-color="#eeeeb0" offset="95%" />
	</linearGradient>
</defs>
<style type="text/css">
	text { font-family:Verdana; font-size:12px; fill:rgb(0,0,0); }
	#search { opacity:0.1; cursor:pointer; }
	#search:hover, #search.show { opacity:1; }
	#subtitle { text-anchor:middle; font-color:rgb(160,160,160); }
	#title { text-anchor:middle; font-size:17px}
	#unzoom { cursor:pointer; }
	#frames > *:hover { stroke:black; stroke-width:0.5; cursor:pointer; }
	.hide { display:none; }
	.parent { opacity:0.5; }
</style>
<script type="text/ecmascript">
<![CDATA[
	"use strict";
	var details, searchbtn, unzoombtn, matchedtxt, svg, searching;
	function init(evt) {
		details = document.getElementById("details").firstChild;
		searchbtn = document.getElementById("search");
		unzoombtn = document.getElementById("unzoom");
		matchedtxt = document.getElementById("matched");
		svg = document.getElementsByTagName("svg")[0];
		searching = 0;
	}

	window.addEventListener("click", function(e) {
		var target = find_group(e.target);
		if (target) {
			if (target.nodeName == "a") {
				if (e.ctrlKey === false) return;
				e.preventDefault();
			}
			if (target.classList.contains("parent")) unzoom();
			zoom(target);
		}
		else if (e.target.id == "unzoom") unzoom();
		else if (e.target.id == "search") search_prompt();
	}, false)

	// mouse-over for info
	// show
	window.addEventListener("mouseover", function(e) {
		var target = find_group(e.target);
		if (target) details.nodeValue = "Function: " + g_to_text(target);
	}, false)

	// clear
	window.addEventListener("mouseout", function(e) {
		var target = find_group(e.target);
		if (target) details.nodeValue = ' ';
	}, false)

	// ctrl-F for search
	window.addEventListener("keydown",function (e) {
		if (e.keyCode === 114 || (e.ctrlKey && e.keyCode === 70)) {
			e.preventDefault();
			search_prompt();
		}
	}, false)

	// functions
	function find_child(node, selector) {
		var children = node.querySelectorAll(selector);
		if (children.length) return children[0];
		return;
	}
	function find_group(node) {
		var parent = node.parentElement;
		if (!parent) return;
		if (parent.id == "frames") return node;
		return find_group(parent);
	}
	function orig_save(e, attr, val) {
		if (e.attributes["_orig_" + attr] != undefined) return;
		if (e.attributes[attr] == undefined) return;
		if (val == undefined) val = e.attributes[attr].value;
		e.setAttribute("_orig_" + attr, val);
	}
	function orig_load(e, attr) {
		if (e.attributes["_orig_"+attr] == undefined) return;
		e.attributes[attr].value = e.attributes["_orig_" + attr].value;
		e.removeAttribute("_orig_"+attr);
	}
	function g_to_text(e) {
		var text = find_child(e, "title").firstChild.nodeValue;
		return (text)
	}
	function g_to_func(e) {
		var func = g_to_text(e);
		// if there's any manipulation we want to do to the function
		// name before it's searched, do it here before returning.
		return (func);
	}
	function update_text(e) {
		var r = find_child(e, "rect");
		var t = find_child(e, "text");
		var w = parseFloat(r.attributes.width.value) -3;
		var txt = find_child(e, "title").textContent.replace(/\([^(]*\)$/,"");
		t.attributes.x.value = parseFloat(r.attributes.x.value) + 3;

		// Smaller than this size won't fit anything
		if (w < 2 * 12 * 0.59) {
			t.textContent = "";
			return;
		}

		t.textContent = txt;
		// Fit in full text width
		if (/^ *$/.test(txt) || t.getSubStringLength(0, txt.length) < w)
			return;

		for (var x = txt.length - 2; x > 0; x--) {
			if (t.getSubStringLength(0, x + 2) <= w) {
				t.textContent = txt.substring(0, x) + "..";
				return;
			}
		}
		t.textContent = "";
	}

	// zoom
	function zoom_reset(e) {
		if (e.attributes != undefined) {
			orig_load(e, "x");
			orig_load(e, "width");
		}
		if (e.childNodes == undefined) return;
		for (var i = 0, c = e.childNodes; i < c.length; i++) {
			zoom_reset(c[i]);
		}
	}
	function zoom_child(e, x, ratio) {
		if (e.attributes != undefined) {
			if (e.attributes.x != undefined) {
				orig_save(e, "x");
				e.attributes.x.value = (parseFloat(e.attributes.x.value) - x - 10) * ratio + 10;
				if (e.tagName == "text")
					e.attributes.x.value = find_child(e.parentNode, "rect[x]").attributes.x.value + 3;
			}
			if (e.attributes.width != undefined) {
				orig_save(e, "width");
				e.attributes.width.value = parseFloat(e.attributes.width.value) * ratio;
			}
		}

		if (e.childNodes == undefined) return;
		for (var i = 0, c = e.childNodes; i < c.length; i++) {
			zoom_child(c[i], x - 10, ratio);
		}
	}
	function zoom_parent(e) {
		if (e.attributes) {
			if (e.attributes.x != undefined) {
				orig_save(e, "x");
				e.attributes.x.value = 10;
			}
			if (e.attributes.width != undefined) {
				orig_save(e, "width");
				e.attributes.width.value = parseInt(svg.width.baseVal.value) - (10 * 2);
			}
		}
		if (e.childNodes == undefined) return;
		for (var i = 0, c = e.childNodes; i < c.length; i++) {
			zoom_parent(c[i]);
		}
	}
	function zoom(node) {
		var attr = find_child(node, "rect").attributes;
		var width = parseFloat(attr.width.value);
		var xmin = parseFloat(attr.x.value);
		var xmax = parseFloat(xmin + width);
		var ymin = parseFloat(attr.y.value);
		var ratio = (svg.width.baseVal.value - 2 * 10) / width;

		// XXX: Workaround for JavaScript float issues (fix me)
		var fudge = 0.0001;

		unzoombtn.classList.remove("hide");

		var el = document.getElementById("frames").children;
		for (var i = 0; i < el.length; i++) {
			var e = el[i];
			var a = find_child(e, "rect").attributes;
			var ex = parseFloat(a.x.value);
			var ew = parseFloat(a.width.value);
			var upstack;
			// Is it an ancestor
			if (0 == 0) {
				upstack = parseFloat(a.y.value) > ymin;
			} else {
				upstack = parseFloat(a.y.value) < ymin;
			}
			if (upstack) {
				// Direct ancestor
				if (ex <= xmin && (ex+ew+fudge) >= xmax) {
					e.classList.add("parent");
					zoom_parent(e);
					update_text(e);
				}
				// not in current path
				else
					e.classList.add("hide");
			}
			// Children maybe
			else {
				// no common path
				if (ex < xmin || ex + fudge >= xmax) {
					e.classList.add("hide");
				}
				else {
					zoom_child(e, xmin, ratio);
					update_text(e);
				}
			}
		}
	}
	function unzoom() {
		unzoombtn.classList.add("hide");
		var el = document.getElementById("frames").children;
		for(var i = 0; i < el.length; i++) {
			el[i].classList.remove("parent");
			el[i].classList.remove("hide");
			zoom_reset(el[i]);
			update_text(el[i]);
		}
	}

	// search
	function reset_search() {
		var el = document.querySelectorAll("#frames rect");
		for (var i = 0; i < el.length; i++) {
			orig_load(el[i], "fill")
		}
	}
	function search_prompt() {
		if (!searching) {
			var term = prompt("Enter a search term (regexp " +
			    "allowed, eg: ^ext4_)", "");
			if (term != null) {
				search(term)
			}
		} else {
			reset_search();
			searching = 0;
			searchbtn.classList.remove("show");
			searchbtn.firstChild.nodeValue = "Search"
			matchedtxt.classList.add("hide");
			matchedtxt.firstChild.nodeValue = ""
		}
	}
	function search(term) {
		var re = new RegExp(term);
		var el = document.getElementById("frames").children;
		var matches = new Object();
		var maxwidth = 0;
		for (var i = 0; i < el.length; i++) {
			var e = el[i];
			var func = g_to_func(e);
			var rect = find_child(e, "rect");
			if (func == null || rect == null)
				continue;

			// Save max width. Only works as we have a root frame
			var w = parseFloat(rect.attributes.width.value);
			if (w > maxwidth)
				maxwidth = w;

			if (func.match(re)) {
				// highlight
				var x = parseFloat(rect.attributes.x.value);
				orig_save(rect, "fill");
				rect.attributes.fill.value = "rgb(230,0,230)";

				// remember matches
				if (matches[x] == undefined) {
					matches[x] = w;
				} else {
					if (w > matches[x]) {
						// overwrite with parent
						matches[x] = w;
					}
				}
				searching = 1;
			}
		}
		if (!searching)
			return;

		searchbtn.classList.add("show");
		searchbtn.firstChild.nodeValue = "Reset Search";

		// calculate percent matched, excluding vertical overlap
		var count = 0;
		var lastx = -1;
		var lastw = 0;
		var keys = Array();
		for (k in matches) {
			if (matches.hasOwnProperty(k))
				keys.push(k);
		}
		// sort the matched frames by their x location
		// ascending, then width descending
		keys.sort(function(a, b){
			return a - b;
		});
		// Step through frames saving only the biggest bottom-up frames
		// thanks to the sort order. This relies on the tree property
		// where children are always smaller than their parents.
		var fudge = 0.0001;	// JavaScript floating point
		for (var k in keys) {
			var x = parseFloat(keys[k]);
			var w = matches[keys[k]];
			if (x >= lastx + lastw - fudge) {
				count += w;
				lastx = x;
				lastw = w;
			}
		}
		// display matched percent
		matchedtxt.classList.remove("hide");
		var pct = 100 * count / maxwidth;
		if (pct != 100) pct = pct.toFixed(1)
		matchedtxt.firstChild.nodeValue = "Matched: " + pct + "%";
	}
]]>
</script>
<rect x="0.0" y="0" width="1200.0" height="2134.0" fill="url(#background)"  />
<text id="title" x="600.00" y="24" >Flame Graph</text>
<text id="details" x="10.00" y="2117" > </text>
<text id="unzoom" x="10.00" y="24" class="hide">Reset Zoom</text>
<text id="search" x="1090.00" y="24" >Search</text>
<text id="matched" x="1090.00" y="2117" > </text>
<g id="frames">
<g >
<title>[unknown] (142 samples, 1.34%)</title><rect x="1174.1" y="773" width="15.8" height="15.0" fill="rgb(232,214,33)" rx="2" ry="2" />
<text  x="1177.11" y="783.5" ></text>
</g>
<g >
<title>[unknown] (142 samples, 1.34%)</title><rect x="1174.1" y="1557" width="15.8" height="15.0" fill="rgb(242,211,31)" rx="2" ry="2" />
<text  x="1177.11" y="1567.5" ></text>
</g>
<g >
<title>[unknown] (142 samples, 1.34%)</title><rect x="1174.1" y="789" width="15.8" height="15.0" fill="rgb(207,95,29)" rx="2" ry="2" />
<text  x="1177.11" y="799.5" ></text>
</g>
<g >
<title>load_elf_binary (1 samples, 0.01%)</title><rect x="1189.9" y="1957" width="0.1" height="15.0" fill="rgb(234,179,0)" rx="2" ry="2" />
<text  x="1192.89" y="1967.5" ></text>
</g>
<g >
<title>[unknown] (142 samples, 1.34%)</title><rect x="1174.1" y="917" width="15.8" height="15.0" fill="rgb(206,65,47)" rx="2" ry="2" />
<text  x="1177.11" y="927.5" ></text>
</g>
<g >
<title>__hrtimer_run_queues (1 samples, 0.01%)</title><rect x="120.0" y="1989" width="0.1" height="15.0" fill="rgb(215,3,32)" rx="2" ry="2" />
<text  x="123.00" y="1999.5" ></text>
</g>
<g >
<title>[unknown] (142 samples, 1.34%)</title><rect x="1174.1" y="805" width="15.8" height="15.0" fill="rgb(230,40,33)" rx="2" ry="2" />
<text  x="1177.11" y="815.5" ></text>
</g>
<g >
<title>irq_entries_start (1 samples, 0.01%)</title><rect x="855.9" y="2021" width="0.1" height="15.0" fill="rgb(221,144,11)" rx="2" ry="2" />
<text  x="858.89" y="2031.5" ></text>
</g>
<g >
<title>acpi_ec_gpe_handler (1 samples, 0.01%)</title><rect x="856.0" y="1845" width="0.1" height="15.0" fill="rgb(247,223,20)" rx="2" ry="2" />
<text  x="859.00" y="1855.5" ></text>
</g>
<g >
<title>[unknown] (142 samples, 1.34%)</title><rect x="1174.1" y="1973" width="15.8" height="15.0" fill="rgb(236,130,14)" rx="2" ry="2" />
<text  x="1177.11" y="1983.5" ></text>
</g>
<g >
<title>[unknown] (142 samples, 1.34%)</title><rect x="1174.1" y="837" width="15.8" height="15.0" fill="rgb(218,79,10)" rx="2" ry="2" />
<text  x="1177.11" y="847.5" ></text>
</g>
<g >
<title>do_syscall_64 (1 samples, 0.01%)</title><rect x="1189.9" y="2021" width="0.1" height="15.0" fill="rgb(241,197,4)" rx="2" ry="2" />
<text  x="1192.89" y="2031.5" ></text>
</g>
<g >
<title>[unknown] (142 samples, 1.34%)</title><rect x="1174.1" y="549" width="15.8" height="15.0" fill="rgb(211,30,23)" rx="2" ry="2" />
<text  x="1177.11" y="559.5" ></text>
</g>
<g >
<title>[unknown] (142 samples, 1.34%)</title><rect x="1174.1" y="1477" width="15.8" height="15.0" fill="rgb(232,194,30)" rx="2" ry="2" />
<text  x="1177.11" y="1487.5" ></text>
</g>
<g >
<title>[unknown] (142 samples, 1.34%)</title><rect x="1174.1" y="2037" width="15.8" height="15.0" fill="rgb(211,153,50)" rx="2" ry="2" />
<text  x="1177.11" y="2047.5" ></text>
</g>
<g >
<title>apic_timer_interrupt (4 samples, 0.04%)</title><rect x="855.4" y="2021" width="0.5" height="15.0" fill="rgb(235,125,30)" rx="2" ry="2" />
<text  x="858.44" y="2031.5" ></text>
</g>
<g >
<title>[unknown] (142 samples, 1.34%)</title><rect x="1174.1" y="1157" width="15.8" height="15.0" fill="rgb(246,188,16)" rx="2" ry="2" />
<text  x="1177.11" y="1167.5" ></text>
</g>
<g >
<title>[unknown] (142 samples, 1.34%)</title><rect x="1174.1" y="2005" width="15.8" height="15.0" fill="rgb(252,226,3)" rx="2" ry="2" />
<text  x="1177.11" y="2015.5" ></text>
</g>
<g >
<title>python (10,616 samples, 99.96%)</title><rect x="10.4" y="2069" width="1179.6" height="15.0" fill="rgb(233,156,30)" rx="2" ry="2" />
<text  x="13.44" y="2079.5" >python</text>
</g>
<g >
<title>[unknown] (142 samples, 1.34%)</title><rect x="1174.1" y="1237" width="15.8" height="15.0" fill="rgb(249,54,52)" rx="2" ry="2" />
<text  x="1177.11" y="1247.5" ></text>
</g>
<g >
<title>__do_execve_file.isra.36 (4 samples, 0.04%)</title><rect x="10.0" y="1989" width="0.4" height="15.0" fill="rgb(223,223,22)" rx="2" ry="2" />
<text  x="13.00" y="1999.5" ></text>
</g>
<g >
<title>do_syscall_64 (4 samples, 0.04%)</title><rect x="10.0" y="2021" width="0.4" height="15.0" fill="rgb(222,151,15)" rx="2" ry="2" />
<text  x="13.00" y="2031.5" ></text>
</g>
<g >
<title>[unknown] (142 samples, 1.34%)</title><rect x="1174.1" y="1845" width="15.8" height="15.0" fill="rgb(232,147,5)" rx="2" ry="2" />
<text  x="1177.11" y="1855.5" ></text>
</g>
<g >
<title>perf_4.19 (4 samples, 0.04%)</title><rect x="10.0" y="2069" width="0.4" height="15.0" fill="rgb(250,186,24)" rx="2" ry="2" />
<text  x="13.00" y="2079.5" ></text>
</g>
<g >
<title>[unknown] (142 samples, 1.34%)</title><rect x="1174.1" y="741" width="15.8" height="15.0" fill="rgb(205,32,53)" rx="2" ry="2" />
<text  x="1177.11" y="751.5" ></text>
</g>
<g >
<title>PyFrame_New (526 samples, 4.95%)</title><rect x="856.7" y="2037" width="58.4" height="15.0" fill="rgb(242,26,20)" rx="2" ry="2" />
<text  x="859.67" y="2047.5" >PyFram..</text>
</g>
<g >
<title>[unknown] (142 samples, 1.34%)</title><rect x="1174.1" y="661" width="15.8" height="15.0" fill="rgb(227,132,29)" rx="2" ry="2" />
<text  x="1177.11" y="671.5" ></text>
</g>
<g >
<title>[unknown] (142 samples, 1.34%)</title><rect x="1174.1" y="1365" width="15.8" height="15.0" fill="rgb(248,108,46)" rx="2" ry="2" />
<text  x="1177.11" y="1375.5" ></text>
</g>
<g >
<title>handle_fasteoi_irq (1 samples, 0.01%)</title><rect x="856.0" y="1973" width="0.1" height="15.0" fill="rgb(223,178,41)" rx="2" ry="2" />
<text  x="859.00" y="1983.5" ></text>
</g>
<g >
<title>acpi_ev_gpe_detect (1 samples, 0.01%)</title><rect x="1174.0" y="1877" width="0.1" height="15.0" fill="rgb(220,194,20)" rx="2" ry="2" />
<text  x="1177.00" y="1887.5" ></text>
</g>
<g >
<title>[unknown] (142 samples, 1.34%)</title><rect x="1174.1" y="341" width="15.8" height="15.0" fill="rgb(239,213,48)" rx="2" ry="2" />
<text  x="1177.11" y="351.5" ></text>
</g>
<g >
<title>[unknown] (142 samples, 1.34%)</title><rect x="1174.1" y="181" width="15.8" height="15.0" fill="rgb(223,204,30)" rx="2" ry="2" />
<text  x="1177.11" y="191.5" ></text>
</g>
<g >
<title>[unknown] (142 samples, 1.34%)</title><rect x="1174.1" y="1861" width="15.8" height="15.0" fill="rgb(216,51,16)" rx="2" ry="2" />
<text  x="1177.11" y="1871.5" ></text>
</g>
<g >
<title>[unknown] (142 samples, 1.34%)</title><rect x="1174.1" y="1781" width="15.8" height="15.0" fill="rgb(228,34,1)" rx="2" ry="2" />
<text  x="1177.11" y="1791.5" ></text>
</g>
<g >
<title>acpi_ev_detect_gpe (1 samples, 0.01%)</title><rect x="856.0" y="1861" width="0.1" height="15.0" fill="rgb(235,109,47)" rx="2" ry="2" />
<text  x="859.00" y="1871.5" ></text>
</g>
<g >
<title>[unknown] (142 samples, 1.34%)</title><rect x="1174.1" y="1381" width="15.8" height="15.0" fill="rgb(242,137,23)" rx="2" ry="2" />
<text  x="1177.11" y="1391.5" ></text>
</g>
<g >
<title>[unknown] (142 samples, 1.34%)</title><rect x="1174.1" y="1301" width="15.8" height="15.0" fill="rgb(251,81,45)" rx="2" ry="2" />
<text  x="1177.11" y="1311.5" ></text>
</g>
<g >
<title>[unknown] (142 samples, 1.34%)</title><rect x="1174.1" y="725" width="15.8" height="15.0" fill="rgb(211,228,9)" rx="2" ry="2" />
<text  x="1177.11" y="735.5" ></text>
</g>
<g >
<title>PyEval_EvalFrameEx (40 samples, 0.38%)</title><rect x="851.0" y="2021" width="4.4" height="15.0" fill="rgb(221,188,24)" rx="2" ry="2" />
<text  x="854.00" y="2031.5" ></text>
</g>
<g >
<title>__do_execve_file.isra.36 (1 samples, 0.01%)</title><rect x="1189.9" y="1989" width="0.1" height="15.0" fill="rgb(211,2,51)" rx="2" ry="2" />
<text  x="1192.89" y="1999.5" ></text>
</g>
<g >
<title>[unknown] (142 samples, 1.34%)</title><rect x="1174.1" y="1925" width="15.8" height="15.0" fill="rgb(222,134,37)" rx="2" ry="2" />
<text  x="1177.11" y="1935.5" ></text>
</g>
<g >
<title>acpi_ev_gpe_detect (1 samples, 0.01%)</title><rect x="856.0" y="1877" width="0.1" height="15.0" fill="rgb(211,155,43)" rx="2" ry="2" />
<text  x="859.00" y="1887.5" ></text>
</g>
<g >
<title>[unknown] (142 samples, 1.34%)</title><rect x="1174.1" y="133" width="15.8" height="15.0" fill="rgb(237,97,7)" rx="2" ry="2" />
<text  x="1177.11" y="143.5" ></text>
</g>
<g >
<title>[unknown] (142 samples, 1.34%)</title><rect x="1174.1" y="1429" width="15.8" height="15.0" fill="rgb(224,211,27)" rx="2" ry="2" />
<text  x="1177.11" y="1439.5" ></text>
</g>
<g >
<title>tick_sched_timer (3 samples, 0.03%)</title><rect x="855.4" y="1957" width="0.4" height="15.0" fill="rgb(216,215,14)" rx="2" ry="2" />
<text  x="858.44" y="1967.5" ></text>
</g>
<g >
<title>[unknown] (142 samples, 1.34%)</title><rect x="1174.1" y="1909" width="15.8" height="15.0" fill="rgb(236,17,7)" rx="2" ry="2" />
<text  x="1177.11" y="1919.5" ></text>
</g>
<g >
<title>handle_irq (1 samples, 0.01%)</title><rect x="1174.0" y="1989" width="0.1" height="15.0" fill="rgb(238,88,45)" rx="2" ry="2" />
<text  x="1177.00" y="1999.5" ></text>
</g>
<g >
<title>__softirqentry_text_start (1 samples, 0.01%)</title><rect x="855.8" y="1973" width="0.1" height="15.0" fill="rgb(229,152,43)" rx="2" ry="2" />
<text  x="858.78" y="1983.5" ></text>
</g>
<g >
<title>[unknown] (142 samples, 1.34%)</title><rect x="1174.1" y="1445" width="15.8" height="15.0" fill="rgb(247,1,24)" rx="2" ry="2" />
<text  x="1177.11" y="1455.5" ></text>
</g>
<g >
<title>[unknown] (142 samples, 1.34%)</title><rect x="1174.1" y="101" width="15.8" height="15.0" fill="rgb(222,29,15)" rx="2" ry="2" />
<text  x="1177.11" y="111.5" ></text>
</g>
<g >
<title>[unknown] (142 samples, 1.34%)</title><rect x="1174.1" y="421" width="15.8" height="15.0" fill="rgb(208,202,45)" rx="2" ry="2" />
<text  x="1177.11" y="431.5" ></text>
</g>
<g >
<title>[unknown] (142 samples, 1.34%)</title><rect x="1174.1" y="1413" width="15.8" height="15.0" fill="rgb(223,155,26)" rx="2" ry="2" />
<text  x="1177.11" y="1423.5" ></text>
</g>
<g >
<title>[unknown] (142 samples, 1.34%)</title><rect x="1174.1" y="293" width="15.8" height="15.0" fill="rgb(226,177,37)" rx="2" ry="2" />
<text  x="1177.11" y="303.5" ></text>
</g>
<g >
<title>acpi_irq (1 samples, 0.01%)</title><rect x="1174.0" y="1909" width="0.1" height="15.0" fill="rgb(226,229,13)" rx="2" ry="2" />
<text  x="1177.00" y="1919.5" ></text>
</g>
<g >
<title>[unknown] (142 samples, 1.34%)</title><rect x="1174.1" y="261" width="15.8" height="15.0" fill="rgb(248,39,33)" rx="2" ry="2" />
<text  x="1177.11" y="271.5" ></text>
</g>
<g >
<title>[unknown] (142 samples, 1.34%)</title><rect x="1174.1" y="453" width="15.8" height="15.0" fill="rgb(247,159,13)" rx="2" ry="2" />
<text  x="1177.11" y="463.5" ></text>
</g>
<g >
<title>[unknown] (142 samples, 1.34%)</title><rect x="1174.1" y="1893" width="15.8" height="15.0" fill="rgb(241,146,9)" rx="2" ry="2" />
<text  x="1177.11" y="1903.5" ></text>
</g>
<g >
<title>[unknown] (142 samples, 1.34%)</title><rect x="1174.1" y="533" width="15.8" height="15.0" fill="rgb(238,54,47)" rx="2" ry="2" />
<text  x="1177.11" y="543.5" ></text>
</g>
<g >
<title>__clear_user (1 samples, 0.01%)</title><rect x="1189.9" y="1941" width="0.1" height="15.0" fill="rgb(239,54,14)" rx="2" ry="2" />
<text  x="1192.89" y="1951.5" ></text>
</g>
<g >
<title>perf_event_exec (4 samples, 0.04%)</title><rect x="10.0" y="1925" width="0.4" height="15.0" fill="rgb(209,214,4)" rx="2" ry="2" />
<text  x="13.00" y="1935.5" ></text>
</g>
<g >
<title>handle_irq_event_percpu (1 samples, 0.01%)</title><rect x="1174.0" y="1941" width="0.1" height="15.0" fill="rgb(206,78,15)" rx="2" ry="2" />
<text  x="1177.00" y="1951.5" ></text>
</g>
<g >
<title>[unknown] (142 samples, 1.34%)</title><rect x="1174.1" y="53" width="15.8" height="15.0" fill="rgb(252,10,13)" rx="2" ry="2" />
<text  x="1177.11" y="63.5" ></text>
</g>
<g >
<title>[unknown] (142 samples, 1.34%)</title><rect x="1174.1" y="1093" width="15.8" height="15.0" fill="rgb(252,228,17)" rx="2" ry="2" />
<text  x="1177.11" y="1103.5" ></text>
</g>
<g >
<title>[unknown] (142 samples, 1.34%)</title><rect x="1174.1" y="1125" width="15.8" height="15.0" fill="rgb(205,13,36)" rx="2" ry="2" />
<text  x="1177.11" y="1135.5" ></text>
</g>
<g >
<title>[unknown] (142 samples, 1.34%)</title><rect x="1174.1" y="213" width="15.8" height="15.0" fill="rgb(234,141,12)" rx="2" ry="2" />
<text  x="1177.11" y="223.5" ></text>
</g>
<g >
<title>[unknown] (142 samples, 1.34%)</title><rect x="1174.1" y="1173" width="15.8" height="15.0" fill="rgb(214,70,46)" rx="2" ry="2" />
<text  x="1177.11" y="1183.5" ></text>
</g>
<g >
<title>[unknown] (142 samples, 1.34%)</title><rect x="1174.1" y="1109" width="15.8" height="15.0" fill="rgb(245,167,5)" rx="2" ry="2" />
<text  x="1177.11" y="1119.5" ></text>
</g>
<g >
<title>[unknown] (142 samples, 1.34%)</title><rect x="1174.1" y="373" width="15.8" height="15.0" fill="rgb(245,105,20)" rx="2" ry="2" />
<text  x="1177.11" y="383.5" ></text>
</g>
<g >
<title>[unknown] (142 samples, 1.34%)</title><rect x="1174.1" y="1749" width="15.8" height="15.0" fill="rgb(250,6,36)" rx="2" ry="2" />
<text  x="1177.11" y="1759.5" ></text>
</g>
<g >
<title>[unknown] (142 samples, 1.34%)</title><rect x="1174.1" y="1765" width="15.8" height="15.0" fill="rgb(209,167,15)" rx="2" ry="2" />
<text  x="1177.11" y="1775.5" ></text>
</g>
<g >
<title>[unknown] (142 samples, 1.34%)</title><rect x="1174.1" y="1733" width="15.8" height="15.0" fill="rgb(209,109,25)" rx="2" ry="2" />
<text  x="1177.11" y="1743.5" ></text>
</g>
<g >
<title>tick_sched_handle (1 samples, 0.01%)</title><rect x="855.7" y="1941" width="0.1" height="15.0" fill="rgb(242,143,54)" rx="2" ry="2" />
<text  x="858.67" y="1951.5" ></text>
</g>
<g >
<title>[unknown] (142 samples, 1.34%)</title><rect x="1174.1" y="1621" width="15.8" height="15.0" fill="rgb(220,148,46)" rx="2" ry="2" />
<text  x="1177.11" y="1631.5" ></text>
</g>
<g >
<title>[unknown] (142 samples, 1.34%)</title><rect x="1174.1" y="1701" width="15.8" height="15.0" fill="rgb(222,196,17)" rx="2" ry="2" />
<text  x="1177.11" y="1711.5" ></text>
</g>
<g >
<title>hrtimer_interrupt (1 samples, 0.01%)</title><rect x="120.0" y="2005" width="0.1" height="15.0" fill="rgb(216,18,19)" rx="2" ry="2" />
<text  x="123.00" y="2015.5" ></text>
</g>
<g >
<title>all (10,620 samples, 100%)</title><rect x="10.0" y="2085" width="1180.0" height="15.0" fill="rgb(237,36,14)" rx="2" ry="2" />
<text  x="13.00" y="2095.5" ></text>
</g>
<g >
<title>apic_timer_interrupt (1 samples, 0.01%)</title><rect x="120.0" y="2037" width="0.1" height="15.0" fill="rgb(245,27,43)" rx="2" ry="2" />
<text  x="123.00" y="2047.5" ></text>
</g>
<g >
<title>[unknown] (142 samples, 1.34%)</title><rect x="1174.1" y="853" width="15.8" height="15.0" fill="rgb(228,68,46)" rx="2" ry="2" />
<text  x="1177.11" y="863.5" ></text>
</g>
<g >
<title>[unknown] (142 samples, 1.34%)</title><rect x="1174.1" y="981" width="15.8" height="15.0" fill="rgb(223,220,5)" rx="2" ry="2" />
<text  x="1177.11" y="991.5" ></text>
</g>
<g >
<title>[unknown] (142 samples, 1.34%)</title><rect x="1174.1" y="1061" width="15.8" height="15.0" fill="rgb(220,99,21)" rx="2" ry="2" />
<text  x="1177.11" y="1071.5" ></text>
</g>
<g >
<title>acpi_ev_sci_xrupt_handler (1 samples, 0.01%)</title><rect x="1174.0" y="1893" width="0.1" height="15.0" fill="rgb(208,48,36)" rx="2" ry="2" />
<text  x="1177.00" y="1903.5" ></text>
</g>
<g >
<title>[unknown] (142 samples, 1.34%)</title><rect x="1174.1" y="1493" width="15.8" height="15.0" fill="rgb(235,110,24)" rx="2" ry="2" />
<text  x="1177.11" y="1503.5" ></text>
</g>
<g >
<title>entry_SYSCALL_64_after_hwframe (4 samples, 0.04%)</title><rect x="10.0" y="2037" width="0.4" height="15.0" fill="rgb(233,200,32)" rx="2" ry="2" />
<text  x="13.00" y="2047.5" ></text>
</g>
<g >
<title>scheduler_tick (1 samples, 0.01%)</title><rect x="855.7" y="1909" width="0.1" height="15.0" fill="rgb(225,145,7)" rx="2" ry="2" />
<text  x="858.67" y="1919.5" ></text>
</g>
<g >
<title>[unknown] (142 samples, 1.34%)</title><rect x="1174.1" y="597" width="15.8" height="15.0" fill="rgb(247,160,40)" rx="2" ry="2" />
<text  x="1177.11" y="607.5" ></text>
</g>
<g >
<title>__handle_irq_event_percpu (1 samples, 0.01%)</title><rect x="1174.0" y="1925" width="0.1" height="15.0" fill="rgb(250,47,5)" rx="2" ry="2" />
<text  x="1177.00" y="1935.5" ></text>
</g>
<g >
<title>[unknown] (142 samples, 1.34%)</title><rect x="1174.1" y="1685" width="15.8" height="15.0" fill="rgb(206,93,53)" rx="2" ry="2" />
<text  x="1177.11" y="1695.5" ></text>
</g>
<g >
<title>[unknown] (142 samples, 1.34%)</title><rect x="1174.1" y="869" width="15.8" height="15.0" fill="rgb(219,186,24)" rx="2" ry="2" />
<text  x="1177.11" y="879.5" ></text>
</g>
<g >
<title>handle_irq_event_percpu (1 samples, 0.01%)</title><rect x="856.0" y="1941" width="0.1" height="15.0" fill="rgb(251,150,39)" rx="2" ry="2" />
<text  x="859.00" y="1951.5" ></text>
</g>
<g >
<title>[unknown] (142 samples, 1.34%)</title><rect x="1174.1" y="1045" width="15.8" height="15.0" fill="rgb(219,152,37)" rx="2" ry="2" />
<text  x="1177.11" y="1055.5" ></text>
</g>
<g >
<title>entry_SYSCALL_64_after_hwframe (1 samples, 0.01%)</title><rect x="1189.9" y="2037" width="0.1" height="15.0" fill="rgb(219,3,20)" rx="2" ry="2" />
<text  x="1192.89" y="2047.5" ></text>
</g>
<g >
<title>smp_apic_timer_interrupt (1 samples, 0.01%)</title><rect x="120.0" y="2021" width="0.1" height="15.0" fill="rgb(212,23,17)" rx="2" ry="2" />
<text  x="123.00" y="2031.5" ></text>
</g>
<g >
<title>[unknown] (142 samples, 1.34%)</title><rect x="1174.1" y="1509" width="15.8" height="15.0" fill="rgb(250,114,9)" rx="2" ry="2" />
<text  x="1177.11" y="1519.5" ></text>
</g>
<g >
<title>tick_sched_do_timer (1 samples, 0.01%)</title><rect x="855.6" y="1941" width="0.1" height="15.0" fill="rgb(244,210,26)" rx="2" ry="2" />
<text  x="858.56" y="1951.5" ></text>
</g>
<g >
<title>handle_fasteoi_irq (1 samples, 0.01%)</title><rect x="1174.0" y="1973" width="0.1" height="15.0" fill="rgb(254,167,7)" rx="2" ry="2" />
<text  x="1177.00" y="1983.5" ></text>
</g>
<g >
<title>[unknown] (142 samples, 1.34%)</title><rect x="1174.1" y="517" width="15.8" height="15.0" fill="rgb(238,59,52)" rx="2" ry="2" />
<text  x="1177.11" y="527.5" ></text>
</g>
<g >
<title>[unknown] (142 samples, 1.34%)</title><rect x="1174.1" y="1941" width="15.8" height="15.0" fill="rgb(241,201,33)" rx="2" ry="2" />
<text  x="1177.11" y="1951.5" ></text>
</g>
<g >
<title>do_IRQ (1 samples, 0.01%)</title><rect x="856.0" y="2005" width="0.1" height="15.0" fill="rgb(249,182,20)" rx="2" ry="2" />
<text  x="859.00" y="2015.5" ></text>
</g>
<g >
<title>update_fast_timekeeper (1 samples, 0.01%)</title><rect x="855.6" y="1893" width="0.1" height="15.0" fill="rgb(254,88,25)" rx="2" ry="2" />
<text  x="858.56" y="1903.5" ></text>
</g>
<g >
<title>search_binary_handler (1 samples, 0.01%)</title><rect x="1189.9" y="1973" width="0.1" height="15.0" fill="rgb(218,97,27)" rx="2" ry="2" />
<text  x="1192.89" y="1983.5" ></text>
</g>
<g >
<title>__handle_irq_event_percpu (1 samples, 0.01%)</title><rect x="856.0" y="1925" width="0.1" height="15.0" fill="rgb(211,204,14)" rx="2" ry="2" />
<text  x="859.00" y="1935.5" ></text>
</g>
<g >
<title>[unknown] (142 samples, 1.34%)</title><rect x="1174.1" y="1189" width="15.8" height="15.0" fill="rgb(232,109,18)" rx="2" ry="2" />
<text  x="1177.11" y="1199.5" ></text>
</g>
<g >
<title>timekeeping_advance (1 samples, 0.01%)</title><rect x="855.6" y="1925" width="0.1" height="15.0" fill="rgb(215,209,3)" rx="2" ry="2" />
<text  x="858.56" y="1935.5" ></text>
</g>
<g >
<title>__schedule (4 samples, 0.04%)</title><rect x="856.2" y="1957" width="0.5" height="15.0" fill="rgb(213,7,25)" rx="2" ry="2" />
<text  x="859.22" y="1967.5" ></text>
</g>
<g >
<title>prepare_exit_to_usermode (5 samples, 0.05%)</title><rect x="856.1" y="2005" width="0.6" height="15.0" fill="rgb(217,94,14)" rx="2" ry="2" />
<text  x="859.11" y="2015.5" ></text>
</g>
<g >
<title>[unknown] (142 samples, 1.34%)</title><rect x="1174.1" y="565" width="15.8" height="15.0" fill="rgb(230,156,44)" rx="2" ry="2" />
<text  x="1177.11" y="575.5" ></text>
</g>
<g >
<title>[unknown] (142 samples, 1.34%)</title><rect x="1174.1" y="1989" width="15.8" height="15.0" fill="rgb(234,6,33)" rx="2" ry="2" />
<text  x="1177.11" y="1999.5" ></text>
</g>
<g >
<title>[unknown] (142 samples, 1.34%)</title><rect x="1174.1" y="997" width="15.8" height="15.0" fill="rgb(225,92,1)" rx="2" ry="2" />
<text  x="1177.11" y="1007.5" ></text>
</g>
<g >
<title>handle_irq_event (1 samples, 0.01%)</title><rect x="856.0" y="1957" width="0.1" height="15.0" fill="rgb(244,8,5)" rx="2" ry="2" />
<text  x="859.00" y="1967.5" ></text>
</g>
<g >
<title>[unknown] (142 samples, 1.34%)</title><rect x="1174.1" y="1717" width="15.8" height="15.0" fill="rgb(241,181,48)" rx="2" ry="2" />
<text  x="1177.11" y="1727.5" ></text>
</g>
<g >
<title>[unknown] (142 samples, 1.34%)</title><rect x="1174.1" y="1077" width="15.8" height="15.0" fill="rgb(225,35,27)" rx="2" ry="2" />
<text  x="1177.11" y="1087.5" ></text>
</g>
<g >
<title>[unknown] (142 samples, 1.34%)</title><rect x="1174.1" y="1637" width="15.8" height="15.0" fill="rgb(241,64,47)" rx="2" ry="2" />
<text  x="1177.11" y="1647.5" ></text>
</g>
<g >
<title>__perf_event_task_sched_in (4 samples, 0.04%)</title><rect x="856.2" y="1925" width="0.5" height="15.0" fill="rgb(241,173,2)" rx="2" ry="2" />
<text  x="859.22" y="1935.5" ></text>
</g>
<g >
<title>[unknown] (142 samples, 1.34%)</title><rect x="1174.1" y="1349" width="15.8" height="15.0" fill="rgb(242,138,22)" rx="2" ry="2" />
<text  x="1177.11" y="1359.5" ></text>
</g>
<g >
<title>[unknown] (142 samples, 1.34%)</title><rect x="1174.1" y="1829" width="15.8" height="15.0" fill="rgb(212,208,35)" rx="2" ry="2" />
<text  x="1177.11" y="1839.5" ></text>
</g>
<g >
<title>advance_transaction (1 samples, 0.01%)</title><rect x="856.0" y="1829" width="0.1" height="15.0" fill="rgb(242,175,48)" rx="2" ry="2" />
<text  x="859.00" y="1839.5" ></text>
</g>
<g >
<title>rcu_process_callbacks (1 samples, 0.01%)</title><rect x="855.8" y="1957" width="0.1" height="15.0" fill="rgb(229,226,28)" rx="2" ry="2" />
<text  x="858.78" y="1967.5" ></text>
</g>
<g >
<title>ret_from_intr (1 samples, 0.01%)</title><rect x="1174.0" y="2021" width="0.1" height="15.0" fill="rgb(223,129,39)" rx="2" ry="2" />
<text  x="1177.00" y="2031.5" ></text>
</g>
<g >
<title>[unknown] (142 samples, 1.34%)</title><rect x="1174.1" y="693" width="15.8" height="15.0" fill="rgb(254,220,54)" rx="2" ry="2" />
<text  x="1177.11" y="703.5" ></text>
</g>
<g >
<title>smp_apic_timer_interrupt (4 samples, 0.04%)</title><rect x="855.4" y="2005" width="0.5" height="15.0" fill="rgb(211,77,52)" rx="2" ry="2" />
<text  x="858.44" y="2015.5" ></text>
</g>
<g >
<title>schedule (4 samples, 0.04%)</title><rect x="856.2" y="1973" width="0.5" height="15.0" fill="rgb(250,11,24)" rx="2" ry="2" />
<text  x="859.22" y="1983.5" ></text>
</g>
<g >
<title>[unknown] (142 samples, 1.34%)</title><rect x="1174.1" y="389" width="15.8" height="15.0" fill="rgb(252,40,33)" rx="2" ry="2" />
<text  x="1177.11" y="399.5" ></text>
</g>
<g >
<title>[unknown] (142 samples, 1.34%)</title><rect x="1174.1" y="229" width="15.8" height="15.0" fill="rgb(237,104,32)" rx="2" ry="2" />
<text  x="1177.11" y="239.5" ></text>
</g>
<g >
<title>setup_new_exec (4 samples, 0.04%)</title><rect x="10.0" y="1941" width="0.4" height="15.0" fill="rgb(217,76,17)" rx="2" ry="2" />
<text  x="13.00" y="1951.5" ></text>
</g>
<g >
<title>[unknown] (142 samples, 1.34%)</title><rect x="1174.1" y="69" width="15.8" height="15.0" fill="rgb(244,123,40)" rx="2" ry="2" />
<text  x="1177.11" y="79.5" ></text>
</g>
<g >
<title>[unknown] (142 samples, 1.34%)</title><rect x="1174.1" y="1333" width="15.8" height="15.0" fill="rgb(206,136,24)" rx="2" ry="2" />
<text  x="1177.11" y="1343.5" ></text>
</g>
<g >
<title>update_process_times (1 samples, 0.01%)</title><rect x="855.7" y="1925" width="0.1" height="15.0" fill="rgb(242,2,37)" rx="2" ry="2" />
<text  x="858.67" y="1935.5" ></text>
</g>
<g >
<title>[unknown] (4 samples, 0.04%)</title><rect x="10.0" y="2053" width="0.4" height="15.0" fill="rgb(230,125,41)" rx="2" ry="2" />
<text  x="13.00" y="2063.5" ></text>
</g>
<g >
<title>[unknown] (142 samples, 1.34%)</title><rect x="1174.1" y="469" width="15.8" height="15.0" fill="rgb(249,213,15)" rx="2" ry="2" />
<text  x="1177.11" y="479.5" ></text>
</g>
<g >
<title>[unknown] (142 samples, 1.34%)</title><rect x="1174.1" y="1813" width="15.8" height="15.0" fill="rgb(244,39,28)" rx="2" ry="2" />
<text  x="1177.11" y="1823.5" ></text>
</g>
<g >
<title>[unknown] (142 samples, 1.34%)</title><rect x="1174.1" y="309" width="15.8" height="15.0" fill="rgb(239,155,27)" rx="2" ry="2" />
<text  x="1177.11" y="319.5" ></text>
</g>
<g >
<title>[unknown] (142 samples, 1.34%)</title><rect x="1174.1" y="709" width="15.8" height="15.0" fill="rgb(224,169,6)" rx="2" ry="2" />
<text  x="1177.11" y="719.5" ></text>
</g>
<g >
<title>[unknown] (142 samples, 1.34%)</title><rect x="1174.1" y="149" width="15.8" height="15.0" fill="rgb(249,18,27)" rx="2" ry="2" />
<text  x="1177.11" y="159.5" ></text>
</g>
<g >
<title>[unknown] (142 samples, 1.34%)</title><rect x="1174.1" y="613" width="15.8" height="15.0" fill="rgb(241,112,54)" rx="2" ry="2" />
<text  x="1177.11" y="623.5" ></text>
</g>
<g >
<title>perf_event_task_tick (1 samples, 0.01%)</title><rect x="855.7" y="1893" width="0.1" height="15.0" fill="rgb(252,87,25)" rx="2" ry="2" />
<text  x="858.67" y="1903.5" ></text>
</g>
<g >
<title>acpi_irq (1 samples, 0.01%)</title><rect x="856.0" y="1909" width="0.1" height="15.0" fill="rgb(236,54,50)" rx="2" ry="2" />
<text  x="859.00" y="1919.5" ></text>
</g>
<g >
<title>[unknown] (142 samples, 1.34%)</title><rect x="1174.1" y="629" width="15.8" height="15.0" fill="rgb(217,224,9)" rx="2" ry="2" />
<text  x="1177.11" y="639.5" ></text>
</g>
<g >
<title>[unknown] (142 samples, 1.34%)</title><rect x="1174.1" y="645" width="15.8" height="15.0" fill="rgb(210,194,37)" rx="2" ry="2" />
<text  x="1177.11" y="655.5" ></text>
</g>
<g >
<title>page_fault (1 samples, 0.01%)</title><rect x="1189.9" y="1925" width="0.1" height="15.0" fill="rgb(219,221,40)" rx="2" ry="2" />
<text  x="1192.89" y="1935.5" ></text>
</g>
<g >
<title>[unknown] (142 samples, 1.34%)</title><rect x="1174.1" y="581" width="15.8" height="15.0" fill="rgb(222,200,41)" rx="2" ry="2" />
<text  x="1177.11" y="591.5" ></text>
</g>
<g >
<title>[unknown] (142 samples, 1.34%)</title><rect x="1174.1" y="501" width="15.8" height="15.0" fill="rgb(236,4,43)" rx="2" ry="2" />
<text  x="1177.11" y="511.5" ></text>
</g>
<g >
<title>handle_irq_event (1 samples, 0.01%)</title><rect x="1174.0" y="1957" width="0.1" height="15.0" fill="rgb(224,134,5)" rx="2" ry="2" />
<text  x="1177.00" y="1967.5" ></text>
</g>
<g >
<title>[python2.7] (2,331 samples, 21.95%)</title><rect x="915.1" y="2037" width="259.0" height="15.0" fill="rgb(205,49,10)" rx="2" ry="2" />
<text  x="918.11" y="2047.5" >[python2.7]</text>
</g>
<g >
<title>exit_to_usermode_loop (4 samples, 0.04%)</title><rect x="856.2" y="1989" width="0.5" height="15.0" fill="rgb(215,8,16)" rx="2" ry="2" />
<text  x="859.22" y="1999.5" ></text>
</g>
<g >
<title>PyFrame_New (142 samples, 1.34%)</title><rect x="1174.1" y="37" width="15.8" height="15.0" fill="rgb(250,63,42)" rx="2" ry="2" />
<text  x="1177.11" y="47.5" ></text>
</g>
<g >
<title>handle_irq (1 samples, 0.01%)</title><rect x="856.0" y="1989" width="0.1" height="15.0" fill="rgb(211,132,43)" rx="2" ry="2" />
<text  x="859.00" y="1999.5" ></text>
</g>
<g >
<title>swapgs_restore_regs_and_return_to_usermode (5 samples, 0.05%)</title><rect x="856.1" y="2021" width="0.6" height="15.0" fill="rgb(223,192,35)" rx="2" ry="2" />
<text  x="859.11" y="2031.5" ></text>
</g>
<g >
<title>__intel_pmu_enable_all.constprop.25 (1 samples, 0.01%)</title><rect x="855.7" y="1877" width="0.1" height="15.0" fill="rgb(254,198,23)" rx="2" ry="2" />
<text  x="858.67" y="1887.5" ></text>
</g>
<g >
<title>search_binary_handler (4 samples, 0.04%)</title><rect x="10.0" y="1973" width="0.4" height="15.0" fill="rgb(234,35,49)" rx="2" ry="2" />
<text  x="13.00" y="1983.5" ></text>
</g>
<g >
<title>[unknown] (142 samples, 1.34%)</title><rect x="1174.1" y="1957" width="15.8" height="15.0" fill="rgb(244,116,2)" rx="2" ry="2" />
<text  x="1177.11" y="1967.5" ></text>
</g>
<g >
<title>finish_task_switch (4 samples, 0.04%)</title><rect x="856.2" y="1941" width="0.5" height="15.0" fill="rgb(244,213,11)" rx="2" ry="2" />
<text  x="859.22" y="1951.5" ></text>
</g>
<g >
<title>[unknown] (142 samples, 1.34%)</title><rect x="1174.1" y="677" width="15.8" height="15.0" fill="rgb(212,135,27)" rx="2" ry="2" />
<text  x="1177.11" y="687.5" ></text>
</g>
<g >
<title>[unknown] (142 samples, 1.34%)</title><rect x="1174.1" y="949" width="15.8" height="15.0" fill="rgb(242,185,54)" rx="2" ry="2" />
<text  x="1177.11" y="959.5" ></text>
</g>
<g >
<title>[unknown] (142 samples, 1.34%)</title><rect x="1174.1" y="1573" width="15.8" height="15.0" fill="rgb(215,224,19)" rx="2" ry="2" />
<text  x="1177.11" y="1583.5" ></text>
</g>
<g >
<title>[unknown] (142 samples, 1.34%)</title><rect x="1174.1" y="965" width="15.8" height="15.0" fill="rgb(212,119,54)" rx="2" ry="2" />
<text  x="1177.11" y="975.5" ></text>
</g>
<g >
<title>[unknown] (142 samples, 1.34%)</title><rect x="1174.1" y="117" width="15.8" height="15.0" fill="rgb(211,184,11)" rx="2" ry="2" />
<text  x="1177.11" y="127.5" ></text>
</g>
<g >
<title>[unknown] (142 samples, 1.34%)</title><rect x="1174.1" y="757" width="15.8" height="15.0" fill="rgb(210,90,50)" rx="2" ry="2" />
<text  x="1177.11" y="767.5" ></text>
</g>
<g >
<title>[unknown] (142 samples, 1.34%)</title><rect x="1174.1" y="1589" width="15.8" height="15.0" fill="rgb(242,164,49)" rx="2" ry="2" />
<text  x="1177.11" y="1599.5" ></text>
</g>
<g >
<title>[unknown] (142 samples, 1.34%)</title><rect x="1174.1" y="1141" width="15.8" height="15.0" fill="rgb(245,103,23)" rx="2" ry="2" />
<text  x="1177.11" y="1151.5" ></text>
</g>
<g >
<title>[unknown] (142 samples, 1.34%)</title><rect x="1174.1" y="1221" width="15.8" height="15.0" fill="rgb(252,11,34)" rx="2" ry="2" />
<text  x="1177.11" y="1231.5" ></text>
</g>
<g >
<title>[unknown] (142 samples, 1.34%)</title><rect x="1174.1" y="437" width="15.8" height="15.0" fill="rgb(215,167,6)" rx="2" ry="2" />
<text  x="1177.11" y="447.5" ></text>
</g>
<g >
<title>PyEval_EvalFrameEx (987 samples, 9.29%)</title><rect x="10.4" y="2053" width="109.7" height="15.0" fill="rgb(234,32,26)" rx="2" ry="2" />
<text  x="13.44" y="2063.5" >PyEval_EvalFr..</text>
</g>
<g >
<title>[unknown] (142 samples, 1.34%)</title><rect x="1174.1" y="933" width="15.8" height="15.0" fill="rgb(228,26,45)" rx="2" ry="2" />
<text  x="1177.11" y="943.5" ></text>
</g>
<g >
<title>[unknown] (142 samples, 1.34%)</title><rect x="1174.1" y="1605" width="15.8" height="15.0" fill="rgb(228,169,30)" rx="2" ry="2" />
<text  x="1177.11" y="1615.5" ></text>
</g>
<g >
<title>[unknown] (142 samples, 1.34%)</title><rect x="1174.1" y="277" width="15.8" height="15.0" fill="rgb(228,41,7)" rx="2" ry="2" />
<text  x="1177.11" y="287.5" ></text>
</g>
<g >
<title>[unknown] (9,629 samples, 90.67%)</title><rect x="120.1" y="2053" width="1069.9" height="15.0" fill="rgb(223,47,39)" rx="2" ry="2" />
<text  x="123.11" y="2063.5" >[unknown]</text>
</g>
<g >
<title>[unknown] (142 samples, 1.34%)</title><rect x="1174.1" y="405" width="15.8" height="15.0" fill="rgb(225,159,20)" rx="2" ry="2" />
<text  x="1177.11" y="415.5" ></text>
</g>
<g >
<title>acpi_ev_detect_gpe (1 samples, 0.01%)</title><rect x="1174.0" y="1861" width="0.1" height="15.0" fill="rgb(248,62,0)" rx="2" ry="2" />
<text  x="1177.00" y="1871.5" ></text>
</g>
<g >
<title>__x64_sys_execve (4 samples, 0.04%)</title><rect x="10.0" y="2005" width="0.4" height="15.0" fill="rgb(216,87,36)" rx="2" ry="2" />
<text  x="13.00" y="2015.5" ></text>
</g>
<g >
<title>load_elf_binary (4 samples, 0.04%)</title><rect x="10.0" y="1957" width="0.4" height="15.0" fill="rgb(206,86,22)" rx="2" ry="2" />
<text  x="13.00" y="1967.5" ></text>
</g>
<g >
<title>[unknown] (142 samples, 1.34%)</title><rect x="1174.1" y="245" width="15.8" height="15.0" fill="rgb(211,176,31)" rx="2" ry="2" />
<text  x="1177.11" y="255.5" ></text>
</g>
<g >
<title>[unknown] (142 samples, 1.34%)</title><rect x="1174.1" y="1253" width="15.8" height="15.0" fill="rgb(249,147,46)" rx="2" ry="2" />
<text  x="1177.11" y="1263.5" ></text>
</g>
<g >
<title>[unknown] (142 samples, 1.34%)</title><rect x="1174.1" y="901" width="15.8" height="15.0" fill="rgb(216,145,29)" rx="2" ry="2" />
<text  x="1177.11" y="911.5" ></text>
</g>
<g >
<title>[unknown] (142 samples, 1.34%)</title><rect x="1174.1" y="821" width="15.8" height="15.0" fill="rgb(209,149,15)" rx="2" ry="2" />
<text  x="1177.11" y="831.5" ></text>
</g>
<g >
<title>acpi_ev_sci_xrupt_handler (1 samples, 0.01%)</title><rect x="856.0" y="1893" width="0.1" height="15.0" fill="rgb(238,23,20)" rx="2" ry="2" />
<text  x="859.00" y="1903.5" ></text>
</g>
<g >
<title>[unknown] (142 samples, 1.34%)</title><rect x="1174.1" y="1285" width="15.8" height="15.0" fill="rgb(205,131,40)" rx="2" ry="2" />
<text  x="1177.11" y="1295.5" ></text>
</g>
<g >
<title>[unknown] (142 samples, 1.34%)</title><rect x="1174.1" y="1013" width="15.8" height="15.0" fill="rgb(230,143,33)" rx="2" ry="2" />
<text  x="1177.11" y="1023.5" ></text>
</g>
<g >
<title>[unknown] (142 samples, 1.34%)</title><rect x="1174.1" y="1269" width="15.8" height="15.0" fill="rgb(254,57,16)" rx="2" ry="2" />
<text  x="1177.11" y="1279.5" ></text>
</g>
<g >
<title>[unknown] (142 samples, 1.34%)</title><rect x="1174.1" y="85" width="15.8" height="15.0" fill="rgb(233,224,37)" rx="2" ry="2" />
<text  x="1177.11" y="95.5" ></text>
</g>
<g >
<title>[unknown] (142 samples, 1.34%)</title><rect x="1174.1" y="1461" width="15.8" height="15.0" fill="rgb(243,224,16)" rx="2" ry="2" />
<text  x="1177.11" y="1471.5" ></text>
</g>
<g >
<title>[unknown] (142 samples, 1.34%)</title><rect x="1174.1" y="1541" width="15.8" height="15.0" fill="rgb(205,155,4)" rx="2" ry="2" />
<text  x="1177.11" y="1551.5" ></text>
</g>
<g >
<title>PyEval_EvalFrameEx (6,629 samples, 62.42%)</title><rect x="120.1" y="2037" width="736.6" height="15.0" fill="rgb(233,47,23)" rx="2" ry="2" />
<text  x="123.11" y="2047.5" >PyEval_EvalFrameEx</text>
</g>
<g >
<title>[unknown] (142 samples, 1.34%)</title><rect x="1174.1" y="1653" width="15.8" height="15.0" fill="rgb(241,127,54)" rx="2" ry="2" />
<text  x="1177.11" y="1663.5" ></text>
</g>
<g >
<title>irq_exit (1 samples, 0.01%)</title><rect x="855.8" y="1989" width="0.1" height="15.0" fill="rgb(208,46,26)" rx="2" ry="2" />
<text  x="858.78" y="1999.5" ></text>
</g>
<g >
<title>__x64_sys_execve (1 samples, 0.01%)</title><rect x="1189.9" y="2005" width="0.1" height="15.0" fill="rgb(254,40,5)" rx="2" ry="2" />
<text  x="1192.89" y="2015.5" ></text>
</g>
<g >
<title>native_write_msr (1 samples, 0.01%)</title><rect x="855.7" y="1861" width="0.1" height="15.0" fill="rgb(234,186,25)" rx="2" ry="2" />
<text  x="858.67" y="1871.5" ></text>
</g>
<g >
<title>[unknown] (142 samples, 1.34%)</title><rect x="1174.1" y="1525" width="15.8" height="15.0" fill="rgb(250,196,23)" rx="2" ry="2" />
<text  x="1177.11" y="1535.5" ></text>
</g>
<g >
<title>__hrtimer_run_queues (3 samples, 0.03%)</title><rect x="855.4" y="1973" width="0.4" height="15.0" fill="rgb(226,87,47)" rx="2" ry="2" />
<text  x="858.44" y="1983.5" ></text>
</g>
<g >
<title>do_IRQ (1 samples, 0.01%)</title><rect x="1174.0" y="2005" width="0.1" height="15.0" fill="rgb(236,150,24)" rx="2" ry="2" />
<text  x="1177.00" y="2015.5" ></text>
</g>
<g >
<title>[unknown] (142 samples, 1.34%)</title><rect x="1174.1" y="885" width="15.8" height="15.0" fill="rgb(247,150,49)" rx="2" ry="2" />
<text  x="1177.11" y="895.5" ></text>
</g>
<g >
<title>_raw_spin_lock_irqsave (1 samples, 0.01%)</title><rect x="855.8" y="1941" width="0.1" height="15.0" fill="rgb(235,138,27)" rx="2" ry="2" />
<text  x="858.78" y="1951.5" ></text>
</g>
<g >
<title>[unknown] (142 samples, 1.34%)</title><rect x="1174.1" y="1029" width="15.8" height="15.0" fill="rgb(224,77,17)" rx="2" ry="2" />
<text  x="1177.11" y="1039.5" ></text>
</g>
<g >
<title>[unknown] (142 samples, 1.34%)</title><rect x="1174.1" y="325" width="15.8" height="15.0" fill="rgb(238,15,4)" rx="2" ry="2" />
<text  x="1177.11" y="335.5" ></text>
</g>
<g >
<title>acpi_hw_validate_io_request (1 samples, 0.01%)</title><rect x="1174.0" y="1813" width="0.1" height="15.0" fill="rgb(245,104,23)" rx="2" ry="2" />
<text  x="1177.00" y="1823.5" ></text>
</g>
<g >
<title>[unknown] (142 samples, 1.34%)</title><rect x="1174.1" y="1669" width="15.8" height="15.0" fill="rgb(229,187,39)" rx="2" ry="2" />
<text  x="1177.11" y="1679.5" ></text>
</g>
<g >
<title>ret_from_intr (1 samples, 0.01%)</title><rect x="856.0" y="2021" width="0.1" height="15.0" fill="rgb(216,134,42)" rx="2" ry="2" />
<text  x="859.00" y="2031.5" ></text>
</g>
<g >
<title>[unknown] (142 samples, 1.34%)</title><rect x="1174.1" y="485" width="15.8" height="15.0" fill="rgb(249,114,17)" rx="2" ry="2" />
<text  x="1177.11" y="495.5" ></text>
</g>
<g >
<title>[unknown] (142 samples, 1.34%)</title><rect x="1174.1" y="165" width="15.8" height="15.0" fill="rgb(223,119,38)" rx="2" ry="2" />
<text  x="1177.11" y="175.5" ></text>
</g>
<g >
<title>acpi_hw_read_port (1 samples, 0.01%)</title><rect x="1174.0" y="1829" width="0.1" height="15.0" fill="rgb(248,72,44)" rx="2" ry="2" />
<text  x="1177.00" y="1839.5" ></text>
</g>
<g >
<title>acpi_hw_read (1 samples, 0.01%)</title><rect x="1174.0" y="1845" width="0.1" height="15.0" fill="rgb(232,76,22)" rx="2" ry="2" />
<text  x="1177.00" y="1855.5" ></text>
</g>
<g >
<title>[unknown] (142 samples, 1.34%)</title><rect x="1174.1" y="357" width="15.8" height="15.0" fill="rgb(206,150,35)" rx="2" ry="2" />
<text  x="1177.11" y="367.5" ></text>
</g>
<g >
<title>[unknown] (142 samples, 1.34%)</title><rect x="1174.1" y="1797" width="15.8" height="15.0" fill="rgb(221,20,40)" rx="2" ry="2" />
<text  x="1177.11" y="1807.5" ></text>
</g>
<g >
<title>[unknown] (142 samples, 1.34%)</title><rect x="1174.1" y="197" width="15.8" height="15.0" fill="rgb(208,149,13)" rx="2" ry="2" />
<text  x="1177.11" y="207.5" ></text>
</g>
<g >
<title>[unknown] (142 samples, 1.34%)</title><rect x="1174.1" y="2021" width="15.8" height="15.0" fill="rgb(221,73,18)" rx="2" ry="2" />
<text  x="1177.11" y="2031.5" ></text>
</g>
<g >
<title>[unknown] (142 samples, 1.34%)</title><rect x="1174.1" y="1317" width="15.8" height="15.0" fill="rgb(215,56,10)" rx="2" ry="2" />
<text  x="1177.11" y="1327.5" ></text>
</g>
<g >
<title>timekeeping_update (1 samples, 0.01%)</title><rect x="855.6" y="1909" width="0.1" height="15.0" fill="rgb(250,119,28)" rx="2" ry="2" />
<text  x="858.56" y="1919.5" ></text>
</g>
<g >
<title>[unknown] (142 samples, 1.34%)</title><rect x="1174.1" y="1205" width="15.8" height="15.0" fill="rgb(219,150,4)" rx="2" ry="2" />
<text  x="1177.11" y="1215.5" ></text>
</g>
<g >
<title>[unknown] (142 samples, 1.34%)</title><rect x="1174.1" y="1877" width="15.8" height="15.0" fill="rgb(245,61,42)" rx="2" ry="2" />
<text  x="1177.11" y="1887.5" ></text>
</g>
<g >
<title>hrtimer_interrupt (3 samples, 0.03%)</title><rect x="855.4" y="1989" width="0.4" height="15.0" fill="rgb(240,115,2)" rx="2" ry="2" />
<text  x="858.44" y="1999.5" ></text>
</g>
<g >
<title>[unknown] (142 samples, 1.34%)</title><rect x="1174.1" y="1397" width="15.8" height="15.0" fill="rgb(209,30,32)" rx="2" ry="2" />
<text  x="1177.11" y="1407.5" ></text>
</g>
</g>
</svg>
